<?xml version="1.0" encoding="iso-8859-1"?>
<!-- Generator: Adobe Illustrator 23.0.1, SVG Export Plug-In . SVG Version: 6.00 Build 0)  -->
<svg version="1.1" xmlns="http://www.w3.org/2000/svg" xmlns:xlink="http://www.w3.org/1999/xlink" x="0px" y="0px"
	 viewBox="0 0 492 492" style="enable-background:new 0 0 492 492;" xml:space="preserve">
<g id="Layer_1">
	<g>
		<path d="M246.26,73.94c-15.457,0-29.514,6.328-39.708,16.521c-10.194,10.194-16.522,24.251-16.522,39.707v101.885
			c0,15.457,6.328,29.514,16.522,39.707c10.194,10.194,24.251,16.522,39.708,16.522c15.456,0,29.513-6.328,39.708-16.522
			c10.193-10.193,16.521-24.25,16.521-39.707V130.169c0-15.457-6.328-29.513-16.521-39.707
			C275.773,80.268,261.717,73.94,246.26,73.94L246.26,73.94z M198.408,82.317c12.276-12.276,29.215-19.896,47.853-19.896
			c18.637,0,35.576,7.62,47.852,19.896s19.897,29.215,19.897,47.852v101.885c0,18.637-7.621,35.576-19.897,47.853
			c-12.276,12.276-29.215,19.896-47.852,19.896c-18.637,0-35.576-7.62-47.853-19.896c-12.277-12.276-19.897-29.216-19.897-47.853
			V130.169C178.511,111.532,186.131,94.593,198.408,82.317z"/>
		<path d="M241.688,149.676c3.181,0,5.76-2.579,5.76-5.76c0-3.181-2.579-5.76-5.76-5.76H184.27c-3.181,0-5.76,2.579-5.76,5.76
			c0,3.181,2.579,5.76,5.76,5.76H241.688z"/>
		<path d="M241.688,181.749c3.181,0,5.76-2.579,5.76-5.76c0-3.181-2.579-5.76-5.76-5.76H184.27c-3.181,0-5.76,2.579-5.76,5.76
			c0,3.181,2.579,5.76,5.76,5.76H241.688z"/>
		<path d="M241.688,213.821c3.181,0,5.76-2.579,5.76-5.76c0-3.181-2.579-5.76-5.76-5.76H184.27c-3.181,0-5.76,2.579-5.76,5.76
			c0,3.181,2.579,5.76,5.76,5.76H241.688z"/>
		<path d="M241.688,245.894c3.181,0,5.76-2.579,5.76-5.76c0-3.181-2.579-5.76-5.76-5.76h-56.889c-3.181,0-5.76,2.579-5.76,5.76
			c0,3.181,2.579,5.76,5.76,5.76H241.688z"/>
		<path d="M163.573,224.646c0.298-3.156-2.019-5.957-5.175-6.255c-3.156-0.298-5.957,2.019-6.255,5.175
			c-0.032,0.333-12.513,116.002,93.845,117.313c0.068,0.003,0.136,0.005,0.204,0.006c-0.068-0.002-0.134-0.005-0.204-0.006
			c-3.022-0.141-5.441-2.624-5.465-5.686c-0.025-3.168,2.524-5.758,5.692-5.782l0.046,5.737l-0.046,5.737h-0.023h0.023h0.046h0.045
			h0.023c0.068-0.001,0.136-0.003,0.204-0.006c-0.069,0.001-0.134,0.005-0.204,0.006h-0.023l-0.045-5.737l0.045-5.737
			c3.168,0.024,5.717,2.614,5.693,5.782c-0.024,3.063-2.443,5.546-5.466,5.686c106.358-1.31,93.877-116.98,93.845-117.313
			c-0.299-3.156-3.099-5.473-6.255-5.175c-3.156,0.298-5.474,3.099-5.175,6.255c0.028,0.297,11.177,103.72-82.687,104.763
			C152.396,328.365,163.544,224.942,163.573,224.646z"/>
		<path d="M240.5,420.987c0,3.181,2.579,5.76,5.76,5.76c3.181,0,5.76-2.579,5.76-5.76v-80.295l2.25-6.258
			c0-3.182-4.829-5.048-8.01-5.048c-3.504-0.258-6.587,2.416-6.407,5.741l0.647,5.568V420.987z"/>
		<path d="M303.936,431.06c3.182,0,5.76-2.579,5.76-5.76c0-3.182-2.578-5.76-5.76-5.76H188.583c-3.181,0-5.76,2.578-5.76,5.76
			c0,3.181,2.579,5.76,5.76,5.76H303.936z"/>
	</g>
</g>
<g id="Master_Layer_4">
</g>
</svg>
