<?xml version="1.0" encoding="utf-8"?>
<!-- Generator: Adobe Illustrator 23.0.1, SVG Export Plug-In . SVG Version: 6.00 Build 0)  -->
<svg version="1.1" id="Capa_1" xmlns="http://www.w3.org/2000/svg" xmlns:xlink="http://www.w3.org/1999/xlink" x="0px" y="0px"
	 viewBox="0 0 492 492" style="enable-background:new 0 0 492 492;" xml:space="preserve">
<style type="text/css">
	.st0{fill:#FFFFFF;}
</style>
<path class="st0" d="M163.6,224.6c0.3-3.2-2-6-5.2-6.3s-6,2-6.3,5.2c0,0.3-12.5,116,93.8,117.3c0.1,0,0.1,0,0.2,0
	c-0.1,0-0.1,0-0.2,0c-3-0.1-5.4-2.6-5.5-5.7c0-3.2,2.5-5.8,5.7-5.8l0,5.7l0,5.7h0h0h0h0h0c0.1,0,0.1,0,0.2,0c-0.1,0-0.1,0-0.2,0h0
	l0-5.7l0-5.7c3.2,0,5.7,2.6,5.7,5.8c0,3.1-2.4,5.5-5.5,5.7c106.4-1.3,93.9-117,93.8-117.3c-0.3-3.2-3.1-5.5-6.3-5.2
	s-5.5,3.1-5.2,6.3c0,0.3,11.2,103.7-82.7,104.8C152.4,328.4,163.5,224.9,163.6,224.6z"/>
<path class="st0" d="M240.5,421c0,3.2,2.6,5.8,5.8,5.8s5.8-2.6,5.8-5.8v-80.3l2.3-6.3c0-3.2-4.8-5-8-5c-3.5-0.3-6.6,2.4-6.4,5.7
	l0.6,5.6V421z"/>
<path class="st0" d="M303.9,431.1c3.2,0,5.8-2.6,5.8-5.8c0-3.2-2.6-5.8-5.8-5.8H188.6c-3.2,0-5.8,2.6-5.8,5.8c0,3.2,2.6,5.8,5.8,5.8
	H303.9z"/>
<g id="Master_Layer_4">
</g>
<path class="st0" d="M294.9,101.7c-12.3-12.3-29.2-19.9-47.9-19.9c-18.6,0-35.6,7.6-47.9,19.9c-12.3,12.3-19.9,29.2-19.9,47.9v101.9
	c0,18.6,7.6,35.6,19.9,47.9c12.3,12.3,29.2,19.9,47.9,19.9c18.6,0,35.6-7.6,47.9-19.9c12.3-12.3,19.9-29.2,19.9-47.9V149.5
	C314.8,130.9,307.2,113.9,294.9,101.7z M303.3,251.4c0,15.5-6.3,29.5-16.5,39.7c-10.2,10.2-24.3,16.5-39.7,16.5
	c-15.5,0-29.5-6.3-39.7-16.5c-10.2-10.2-16.5-24.3-16.5-39.7V149.5c0-15.5,6.3-29.5,16.5-39.7c10.2-10.2,24.3-16.5,39.7-16.5
	s29.5,6.3,39.7,16.5c10.2,10.2,16.5,24.3,16.5,39.7V251.4z"/>
</svg>
